<svg width="1440" height="986" viewBox="0 0 1440 986" fill="none" xmlns="http://www.w3.org/2000/svg">
<g filter="url(#filter0_i_857_185)">
<path d="M0 58.8983C0 58.8983 194.5 189.238 283 192.51C371.5 195.782 618 124.746 707.5 103.072C797 81.3982 1126 0 1248.5 0C1371 0 1440 58.8983 1440 58.8983V986H0V58.8983Z" fill="#F0ECFF"/>
</g>
<path d="M1439.5 59.1315V985.5H0.5V59.8324C0.857652 60.0701 1.33612 60.3874 1.93032 60.78C3.37744 61.7361 5.51104 63.1385 8.25772 64.9244C13.7511 68.4961 21.6969 73.6019 31.5083 79.7389C51.1306 92.0125 78.2168 108.412 108.071 124.915C137.923 141.416 170.551 158.025 201.254 170.715C231.945 183.399 260.764 192.188 282.982 193.01C305.163 193.83 337.208 189.995 374.165 183.456C411.132 176.915 453.049 167.663 494.991 157.632C536.934 147.601 578.907 136.791 615.985 127.134C623.09 125.284 630.014 123.476 636.724 121.724C665.038 114.332 689.534 107.937 707.618 103.558C711.809 102.543 716.524 101.397 721.72 100.135C772 87.9184 867.171 64.7952 965.729 43.8974C1074.49 20.8362 1187.31 0.5 1248.5 0.5C1309.67 0.5 1357.47 15.2046 1389.98 29.9047C1406.24 37.2549 1418.67 44.604 1427.03 50.113C1431.21 52.8674 1434.38 55.1618 1436.49 56.766C1437.55 57.5682 1438.35 58.1978 1438.88 58.6261C1439.15 58.8403 1439.35 59.0041 1439.48 59.1141C1439.49 59.12 1439.49 59.1259 1439.5 59.1315Z" stroke="black"/>
<defs>
<filter id="filter0_i_857_185" x="0" y="0" width="1440" height="990" filterUnits="userSpaceOnUse" color-interpolation-filters="sRGB">
<feFlood flood-opacity="0" result="BackgroundImageFix"/>
<feBlend mode="normal" in="SourceGraphic" in2="BackgroundImageFix" result="shape"/>
<feColorMatrix in="SourceAlpha" type="matrix" values="0 0 0 0 0 0 0 0 0 0 0 0 0 0 0 0 0 0 127 0" result="hardAlpha"/>
<feOffset dy="30"/>
<feGaussianBlur stdDeviation="2"/>
<feComposite in2="hardAlpha" operator="arithmetic" k2="-1" k3="1"/>
<feColorMatrix type="matrix" values="0 0 0 0 0 0 0 0 0 0 0 0 0 0 0 0 0 0 0.25 0"/>
<feBlend mode="normal" in2="shape" result="effect1_innerShadow_857_185"/>
</filter>
</defs>
</svg>
