<svg width="94" height="94" viewBox="0 0 94 94" fill="none" xmlns="http://www.w3.org/2000/svg">
<rect x="0.5" y="0.5" width="93" height="93" rx="46.5" fill="#291288"/>
<rect x="0.5" y="0.5" width="93" height="93" rx="46.5" stroke="black"/>
<path d="M27.7754 72.6319L51.1034 48.0799C52.3034 46.7839 53.3354 45.5359 54.1994 44.3359C55.0634 43.1359 55.7114 41.9359 56.1434 40.7359C56.5754 39.5359 56.7914 38.2639 56.7914 36.9199C56.7914 35.9599 56.5994 35.0239 56.2154 34.1119C55.8794 33.1519 55.3274 32.2879 54.5594 31.5199C53.8394 30.7519 52.9514 30.1519 51.8954 29.7199C50.8394 29.2399 49.6154 28.9999 48.2234 28.9999C46.3034 28.9999 44.6474 29.4559 43.2554 30.3679C41.8634 31.2319 40.7834 32.5039 40.0154 34.1839C39.2954 35.8639 38.9354 37.8079 38.9354 40.0159H30.5114C30.5114 36.4159 31.1834 33.2239 32.5274 30.4399C33.9194 27.6079 35.9354 25.3999 38.5754 23.8159C41.2634 22.1839 44.5274 21.3679 48.3674 21.3679C51.2954 21.3679 53.8394 21.8479 55.9994 22.8079C58.1594 23.7199 59.9354 24.9199 61.3274 26.4079C62.7674 27.8959 63.8234 29.5279 64.4954 31.3039C65.2154 33.0799 65.5754 34.8079 65.5754 36.4879C65.5754 39.1279 64.9274 41.6719 63.6314 44.1199C62.3834 46.5679 60.7274 48.7519 58.6634 50.6719L44.3354 64.7119H66.2234V72.6319H27.7754Z" fill="white"/>
</svg>
