<svg width="94" height="94" viewBox="0 0 94 94" fill="none" xmlns="http://www.w3.org/2000/svg">
<rect x="0.5" y="0.5" width="93" height="93" rx="46.5" fill="#291288"/>
<rect x="0.5" y="0.5" width="93" height="93" rx="46.5" stroke="black"/>
<path d="M44.5524 47.4679V42.9319C46.0884 42.9319 47.4564 42.7399 48.6564 42.3559C49.8564 41.9239 50.8644 41.3479 51.6804 40.6279C52.5444 39.9079 53.1924 39.0679 53.6244 38.1079C54.1044 37.0999 54.3444 36.0679 54.3444 35.0119C54.3444 33.6679 54.0804 32.4919 53.5524 31.4839C53.0244 30.4279 52.2564 29.6119 51.2484 29.0359C50.2404 28.4599 48.9924 28.1719 47.5044 28.1719C45.2964 28.1719 43.4484 28.8439 41.9604 30.1879C40.5204 31.4839 39.8004 33.1399 39.8004 35.1559H31.8084C31.8084 32.3719 32.4564 29.9239 33.7524 27.8119C35.0964 25.6999 36.9444 24.0439 39.2964 22.8439C41.6484 21.5959 44.3604 20.9719 47.4324 20.9719C50.6964 20.9719 53.4804 21.5959 55.7844 22.8439C58.0884 24.0919 59.8404 25.7479 61.0404 27.8119C62.2884 29.8279 62.9124 32.0839 62.9124 34.5799C62.9124 37.1239 62.1204 39.3799 60.5364 41.3479C58.9524 43.3159 56.7684 44.8279 53.9844 45.8839C51.2484 46.9399 48.1044 47.4679 44.5524 47.4679ZM47.0724 73.0279C44.3844 73.0279 41.9604 72.6439 39.8004 71.8759C37.6404 71.0599 35.8164 69.9559 34.3284 68.5639C32.8404 67.1239 31.6884 65.4919 30.8724 63.6679C30.0564 61.7959 29.6484 59.8279 29.6484 57.7639H38.1444C38.1444 59.3959 38.5284 60.8119 39.2964 62.0119C40.1124 63.1639 41.2164 64.0759 42.6084 64.7479C44.0004 65.3719 45.5364 65.6839 47.2164 65.6839C48.9444 65.6839 50.4324 65.3719 51.6804 64.7479C52.9764 64.1239 53.9844 63.2359 54.7044 62.0839C55.4244 60.8839 55.7844 59.4439 55.7844 57.7639C55.7844 56.4199 55.5204 55.2199 54.9924 54.1639C54.4644 53.1079 53.6964 52.2199 52.6884 51.4999C51.7284 50.7799 50.5524 50.2279 49.1604 49.8439C47.7684 49.4599 46.2324 49.2679 44.5524 49.2679V44.4439C47.3364 44.4439 49.9284 44.7319 52.3284 45.3079C54.7284 45.8359 56.8164 46.6759 58.5924 47.8279C60.4164 48.9319 61.8324 50.3959 62.8404 52.2199C63.8484 53.9959 64.3524 56.1559 64.3524 58.6999C64.3524 61.5319 63.6324 64.0279 62.1924 66.1879C60.7524 68.3479 58.7364 70.0279 56.1444 71.2279C53.5524 72.4279 50.5284 73.0279 47.0724 73.0279Z" fill="white"/>
</svg>
